<svg width="39" height="32" viewBox="0 0 39 32" fill="none" xmlns="http://www.w3.org/2000/svg">
<path fill-rule="evenodd" clip-rule="evenodd" d="M38.3502 11.4313C38.3502 5.90003 29.5001 0 19.0522 0C8.60421 0 0 5.40836 0 12.1688C0 16.8397 4.17919 20.8959 10.2021 22.7397L10.6938 18.3147C6.26878 16.7167 3.19585 14.2584 3.19585 10.8167C3.19585 5.53128 10.3251 1.10626 18.9293 1.10626C27.5335 0.983338 34.9085 6.26878 34.9085 10.448C34.9085 14.4559 32.3083 15.7507 28.8426 17.4763C28.6946 17.55 28.545 17.6246 28.3939 17.7001L29.2543 22.1251C34.5398 19.7897 38.3502 16.9626 38.3502 11.4313ZM19.0522 2.58124C17.2084 2.58124 15.4876 3.07291 14.2584 3.81042L14.2485 3.81671C14.1027 3.81253 13.9431 3.81044 13.7667 3.81044C12.4147 3.81044 10.0792 4.30211 8.72713 5.16253C7.25213 6.02295 6.26879 7.25212 5.90004 8.60421C5.40837 11.3084 7.86671 13.7667 11.5542 14.2584C11.3084 16.5938 11.0626 19.1751 10.8167 21.8793C10.7727 22.4071 10.7288 22.9427 10.6841 23.4869C10.479 25.9846 10.2591 28.6629 9.95631 31.5897H10.7061C11.0124 28.5085 11.2335 25.5995 11.4416 22.8626L11.4418 22.8599C11.4796 22.3634 11.5169 21.8727 11.5542 21.3876C11.6771 18.4376 11.923 15.7334 12.1688 13.2751H12.6605C12.4146 15.7334 12.1688 18.4376 12.1688 21.3876C11.9257 24.5479 11.6826 27.9486 11.4395 31.5897H13.0292V30.7293H16.9626V28.271H14.6272C14.6272 27.5335 14.6272 26.673 14.7501 25.9355H15.8563V24.2147H13.2751C13.398 22.3709 13.5209 20.5272 13.5209 18.9293C13.5812 18.1457 13.6119 17.3621 13.6421 16.5929L13.6421 16.5929L13.6421 16.5929L13.6421 16.5928L13.6421 16.5928C13.6734 15.7936 13.7041 15.01 13.7667 14.2584C15.4589 14.0704 17.0072 13.5229 18.1918 12.6709V16.8396V22.0022H14.5042C14.5042 22.6168 14.5042 23.1084 14.3813 23.723H16.9626V26.1814H15.7334V27.7793H18.3147V28.7626H19.0521C19.0507 26.9414 19.0178 25.2166 18.9864 23.5716V23.5715V23.5714V23.5713C18.9571 22.0412 18.9292 20.5803 18.9292 19.1751C18.9292 17.7735 18.8962 16.4049 18.8644 15.0864C18.8348 13.8611 18.8063 12.6792 18.8063 11.5542H19.298C19.298 12.6661 19.3259 13.8059 19.3551 15.0001V15.0002V15.0002V15.0003L19.3551 15.0005C19.3872 16.3144 19.4209 17.6942 19.4209 19.1751C19.4853 20.7208 19.516 22.3341 19.5483 24.0325V24.0325C19.5769 25.5382 19.6068 27.1108 19.6626 28.7626H21.2647V27.7793H23.723C23.723 27.5472 23.6956 27.315 23.6667 27.0699C23.6344 26.7959 23.6001 26.5058 23.6001 26.1814H22.371C22.371 25.7511 22.3402 25.3517 22.3095 24.9522C22.2788 24.5527 22.248 24.1532 22.248 23.723H24.8293C24.8293 23.4157 24.7986 23.1392 24.7678 22.8626C24.7371 22.586 24.7064 22.3095 24.7064 22.0022H21.0189C20.9596 21.1132 20.9289 20.2527 20.8992 19.4209C20.8674 18.5275 20.8367 17.6671 20.773 16.8396C20.7141 16.0739 20.6834 15.3364 20.6539 14.6271C20.6284 14.0137 20.6038 13.4214 20.5625 12.8502C21.8281 13.5922 23.425 14.0902 24.9894 14.2229C25.0521 14.8028 25.1184 15.3899 25.1857 15.9854C25.3631 17.5555 25.5471 19.1843 25.6897 20.8959C25.8007 21.8578 25.9117 22.853 26.026 23.8783V23.8784L26.0261 23.8785L26.0636 24.2147H23.4772C23.4772 24.7064 23.6001 25.321 23.723 25.8127H24.8293C24.8907 26.1814 24.9214 26.5809 24.9522 26.9804C24.9829 27.3799 25.0136 27.7793 25.0751 28.1481H22.7397C22.7397 28.5783 22.7704 28.9778 22.8011 29.3773C22.8319 29.7767 22.8626 30.1762 22.8626 30.6064H26.8094C26.8452 30.8918 26.8817 31.1786 26.9189 31.4668H27.5335C27.1277 28.322 26.8056 25.512 26.4982 22.8297C26.4331 22.262 26.3687 21.7 26.3043 21.1418C26.2486 20.7145 26.1928 20.29 26.1375 19.8688C25.8269 17.5029 25.5296 15.239 25.321 13.1522H25.8126C26.0585 15.6105 26.4272 18.3147 26.9189 21.1418C27.2256 23.1357 27.4845 25.2253 27.7553 27.4106C27.9185 28.7279 28.0861 30.08 28.271 31.4668H29.9918C29.614 29.124 29.2826 26.8742 28.9691 24.7459L28.969 24.7454C28.7726 23.4122 28.5833 22.1267 28.3939 20.8959C27.9958 18.5071 27.6782 16.2794 27.376 14.1477C28.9854 13.9067 30.1512 13.2951 31.0981 12.5376C32.3272 11.5542 32.8189 10.0792 32.4502 8.60421C32.0814 7.1292 30.9752 6.02295 29.5002 5.16253C28.3939 4.30211 26.0585 3.81044 24.7064 3.81044C24.3806 3.81044 24.1119 3.81758 23.8797 3.83185L23.846 3.81042C22.6168 3.07291 20.8959 2.58124 19.0522 2.58124ZM14.873 4.91669C14.8533 4.91013 14.8371 4.90391 14.8238 4.89802C14.0565 5.50905 13.5737 6.28516 13.5209 7.12918C13.398 9.09586 15.3647 10.8167 18.1918 11.1855V11.0625H20.5272C23.2314 10.6938 24.9522 9.09586 24.7064 7.12918C24.4605 5.16251 22.0022 3.56458 19.0522 3.56458C17.9772 3.56458 16.9675 3.77677 16.1123 4.14166L16.2251 4.17919C15.7334 4.30211 15.2417 4.54794 14.873 4.91669ZM7.62088 8.60421C7.93877 6.80281 10.9058 5.27546 12.8207 4.88843C12.3528 5.38853 12.0607 6.02738 11.923 7.12918C11.7138 8.80276 13.6408 11.1884 16.5679 12.0896C15.8533 12.4613 15.0163 12.71 14.1355 12.7834V12.6605H11.8001V12.7834C9.09589 12.2917 7.25213 10.6938 7.62088 8.60421ZM24.8473 12.8477C23.8575 12.7279 22.9281 12.4318 22.1449 12.0278C24.8787 11.0645 26.5119 8.79001 26.3043 7.12918C26.1604 5.97799 25.8059 5.33218 25.2655 4.82198C27.1378 5.04455 30.5215 6.56277 30.9752 8.60421C31.3959 10.4975 29.7464 12.3008 27.1821 12.7817L27.1647 12.6605H24.8293L24.8473 12.8477Z" fill="#428DFF"/>
</svg>
