<svg width="106" height="87" viewBox="0 0 106 87" fill="none" xmlns="http://www.w3.org/2000/svg">
<path fill-rule="evenodd" clip-rule="evenodd" d="M105.349 31.4021C105.349 16.2075 81.0376 0 52.3368 0C23.636 0 0 14.8569 0 33.428C0 46.259 11.4803 57.4016 28.0255 62.4665L29.3761 50.3108C17.2205 45.9213 8.77907 39.1682 8.77907 29.7138C8.77907 15.1945 28.3632 3.03891 51.9991 3.03891C75.6351 2.70125 95.8945 17.2205 95.8945 28.7008C95.8945 39.7108 88.7517 43.2674 79.2314 48.0079C78.8247 48.2104 78.4137 48.4151 77.9987 48.6226L80.3623 60.7782C94.8815 54.3627 105.349 46.5966 105.349 31.4021ZM52.3368 7.09081C47.2719 7.09081 42.5448 8.44143 39.1682 10.4674L39.1411 10.4846C38.7404 10.4731 38.3019 10.4674 37.8175 10.4674C34.1033 10.4674 27.6878 11.818 23.9736 14.1816C19.9217 16.5452 17.2205 19.9217 16.2075 23.636C14.8569 31.0644 21.61 37.8175 31.7397 39.1682C31.0644 45.5836 30.3891 52.6744 29.7138 60.1029C29.593 61.5527 29.4721 63.0242 29.3494 64.5193C28.786 71.3804 28.1819 78.7376 27.3502 86.7778H29.4098C30.2512 78.3141 30.8588 70.3233 31.4304 62.8054L31.4304 62.8047L31.4305 62.8042L31.4308 62.8004C31.5345 61.4354 31.6371 60.0861 31.7397 58.7523C32.0774 50.6485 32.7527 43.2201 33.428 36.4669H34.7787C34.1033 43.2201 33.428 50.6485 33.428 58.7523C32.7602 67.4337 32.0924 76.7756 31.4246 86.7778H35.7916V84.4142H46.5966V77.661H40.1811C40.1811 75.6351 40.1811 73.2715 40.5188 71.2456H43.5577V66.5184H36.4669C36.8046 61.4535 37.1422 56.3887 37.1422 51.9991C37.3078 49.8465 37.3922 47.6939 37.475 45.5812C37.5611 43.3856 37.6455 41.233 37.8175 39.1682C42.4658 38.6517 46.7191 37.1477 49.9732 34.8073V46.259V60.4406H39.8435C39.8435 62.1288 39.8435 63.4795 39.5058 65.1677H46.5966V71.9209H43.2201V76.3104H50.3109V79.0117H52.3367C52.3327 74.009 52.2423 69.2711 52.156 64.7524V64.7521V64.7519V64.7516L52.156 64.7513C52.0758 60.5481 51.9992 56.5346 51.9992 52.6744C51.9992 48.8241 51.9084 45.0646 51.8211 41.4427V41.4425V41.4423V41.4422C51.7398 38.0765 51.6615 34.8298 51.6615 31.7397H53.0121C53.0121 34.7943 53.0887 37.9253 53.1689 41.2058L53.1689 41.2062L53.1689 41.2064C53.2571 44.8158 53.3498 48.6062 53.3498 52.6744C53.5267 56.9207 53.6109 61.3524 53.6996 66.018C53.7782 70.1541 53.8603 74.474 54.0136 79.0117H58.4146V76.3104H65.1677C65.1677 75.6727 65.0925 75.0351 65.013 74.3618C64.9242 73.6092 64.8301 72.8121 64.8301 71.9209H61.4535C61.4535 70.7391 61.3691 69.6418 61.2847 68.5444L61.2847 68.5443C61.2003 67.4469 61.1159 66.3495 61.1159 65.1677H68.2067C68.2067 64.3237 68.1223 63.564 68.0378 62.8043L68.0378 62.8041C67.9534 62.0444 67.869 61.2847 67.869 60.4406H57.7393C57.5765 57.9985 57.4922 55.6349 57.4107 53.3498C57.3231 50.8956 57.2388 48.532 57.064 46.259C56.9022 44.1557 56.8179 42.1299 56.7369 40.1817V40.1816L56.7369 40.1814L56.7369 40.1813L56.7369 40.1811L56.7369 40.1809L56.7368 40.1806C56.6668 38.4957 56.5991 36.8687 56.4858 35.2998C59.9624 37.3382 64.349 38.7062 68.6464 39.0707C68.8187 40.6638 69.0009 42.2764 69.1857 43.9123L69.1858 43.9133L69.1859 43.9139L69.186 43.9147L69.186 43.915C69.6732 48.2273 70.1785 52.7008 70.5702 57.4016C70.8748 60.0414 71.1794 62.7727 71.4932 65.5864L71.4939 65.5925L71.4941 65.5946L71.4942 65.5955L71.4945 65.598L71.4945 65.5986L71.5971 66.5184H64.4924C64.4924 67.869 64.8301 69.5573 65.1677 70.9079H68.2066C68.3755 71.9209 68.4599 73.0182 68.5443 74.1156C68.6287 75.213 68.7131 76.3104 68.8819 77.3234H62.4665C62.4665 78.5052 62.5509 79.6026 62.6353 80.7C62.7197 81.7973 62.8041 82.8947 62.8041 84.0765H73.646C73.7444 84.8604 73.8446 85.6483 73.9468 86.4401L75.6351 86.4401C74.5204 77.8011 73.6357 70.0821 72.7911 62.7136C72.6124 61.1542 72.4355 59.6104 72.2585 58.0769C72.1054 56.9033 71.9524 55.7374 71.8004 54.5803C70.9471 48.081 70.1305 41.8618 69.5573 36.1293H70.9079C71.5832 42.8824 72.5962 50.3108 73.9468 58.0769C74.7895 63.5542 75.5007 69.2943 76.2445 75.2973C76.6928 78.916 77.1531 82.6303 77.661 86.4401L82.3882 86.4401C81.3506 80.0069 80.4406 73.8288 79.5796 67.9842L79.5793 67.9823L79.5787 67.9779L79.5786 67.9775L79.5786 67.9773L79.5786 67.9772L79.5785 67.9765L79.5783 67.9749L79.5778 67.9718L79.5769 67.9657C79.038 64.3072 78.5183 60.7794 77.9987 57.4016C76.905 50.8394 76.0327 44.7199 75.2025 38.864C79.6235 38.2021 82.8259 36.5219 85.4271 34.441C88.8037 31.7397 90.1543 27.6878 89.1413 23.636C88.1284 19.5841 85.0895 16.5452 81.0376 14.1816C77.9987 11.818 71.5832 10.4674 67.869 10.4674C66.974 10.4674 66.2358 10.487 65.5978 10.5262L65.5054 10.4674C62.1288 8.44143 57.4016 7.09081 52.3368 7.09081ZM40.8565 13.5063C40.8024 13.4882 40.7579 13.4712 40.7215 13.455C38.6137 15.1335 37.2872 17.2655 37.1422 19.5841C36.8046 24.9866 42.2071 29.7138 49.9732 30.7268V30.3891H56.3887C63.8171 29.3761 68.5443 24.9866 67.869 19.5841C67.1937 14.1816 60.4406 9.79206 52.3368 9.79206C49.3838 9.79206 46.6102 10.3749 44.261 11.3773C44.3618 11.4107 44.4648 11.4451 44.5707 11.4803C43.22 11.818 41.8694 12.4933 40.8565 13.5063ZM20.9347 23.636C21.808 18.6874 29.9587 14.4917 35.2189 13.4286C33.9333 14.8024 33.1311 16.5573 32.7527 19.5841C32.178 24.1814 37.4716 30.7348 45.5124 33.2103C43.5493 34.2314 41.2501 34.9147 38.8305 35.1163V34.7786H32.415V35.1163C24.9866 33.7657 19.9217 29.3761 20.9347 23.636ZM68.2562 35.293C65.5371 34.9639 62.9841 34.1504 60.8325 33.0407C68.3423 30.3944 72.8288 24.1464 72.2585 19.5841C71.8632 16.4217 70.8894 14.6476 69.4049 13.2461C74.5481 13.8574 83.8433 18.028 85.0895 23.636C86.2452 28.837 81.714 33.7907 74.6697 35.1118L74.6221 34.7786H68.2066L68.2372 35.097L68.2562 35.293Z" fill="white"/>
</svg>
