<svg width="51" height="51" viewBox="0 0 51 51" fill="none" xmlns="http://www.w3.org/2000/svg">
<path fill-rule="evenodd" clip-rule="evenodd" d="M0 25.0615C0 18.4148 2.6404 12.0403 7.34034 7.34034C12.0403 2.6404 18.4148 0 25.0615 0C31.7082 0 38.0827 2.6404 42.7826 7.34034C47.4826 12.0403 50.123 18.4148 50.123 25.0615C50.123 31.7082 47.4826 38.0827 42.7826 42.7826C38.0827 47.4826 31.7082 50.123 25.0615 50.123C18.4148 50.123 12.0403 47.4826 7.34034 42.7826C2.6404 38.0827 0 31.7082 0 25.0615ZM25.0615 3.59481C20.9007 3.59495 16.8295 4.8043 13.3434 7.07573C9.85727 9.34717 7.10638 12.5828 5.4254 16.3889C3.74442 20.1951 3.2058 24.4077 3.87507 28.5144C4.54434 32.6211 6.39265 36.4447 9.19514 39.5202C10.8965 36.8553 13.2422 34.6622 16.0154 33.1437C18.7886 31.6251 21.8998 30.8301 25.0615 30.8321C31.7289 30.8321 37.5866 34.2983 40.9278 39.5202C43.7303 36.4447 45.5787 32.6211 46.2479 28.5144C46.9172 24.4077 46.3786 20.1951 44.6976 16.3889C43.0166 12.5828 40.2657 9.34717 36.7796 7.07573C33.2934 4.8043 29.2223 3.59495 25.0615 3.59481ZM38.2374 42.0101C36.8984 39.7023 34.9763 37.787 32.6638 36.456C30.3513 35.1251 27.7296 34.4254 25.0615 34.4269C22.3934 34.4254 19.7717 35.1251 17.4592 36.456C15.1467 37.787 13.2246 39.7023 11.8856 42.0101C15.6498 44.9452 20.2882 46.5358 25.0615 46.5282C30.0261 46.5282 34.5972 44.8405 38.2374 42.0101ZM16.1691 21.2964C16.1691 18.938 17.1059 16.6762 18.7736 15.0085C20.4413 13.3409 22.7031 12.404 25.0615 12.404C27.4199 12.404 29.6817 13.3409 31.3494 15.0085C33.017 16.6762 33.9539 18.938 33.9539 21.2964C33.9539 23.6548 33.017 25.9166 31.3494 27.5843C29.6817 29.2519 27.4199 30.1888 25.0615 30.1888C22.7031 30.1888 20.4413 29.2519 18.7736 27.5843C17.1059 25.9166 16.1691 23.6548 16.1691 21.2964ZM25.0615 15.9988C24.3658 15.9988 23.6769 16.1358 23.0342 16.402C22.3914 16.6683 21.8074 17.0585 21.3155 17.5504C20.8236 18.0424 20.4334 18.6264 20.1671 19.2691C19.9009 19.9118 19.7639 20.6007 19.7639 21.2964C19.7639 21.9921 19.9009 22.681 20.1671 23.3237C20.4334 23.9664 20.8236 24.5505 21.3155 25.0424C21.8074 25.5343 22.3914 25.9245 23.0342 26.1908C23.6769 26.457 24.3658 26.594 25.0615 26.594C26.4665 26.594 27.814 26.0359 28.8075 25.0424C29.801 24.0489 30.3591 22.7014 30.3591 21.2964C30.3591 19.8914 29.801 18.5439 28.8075 17.5504C27.814 16.5569 26.4665 15.9988 25.0615 15.9988Z" fill="#428DFF"/>
</svg>
