<svg width="50" height="50" viewBox="0 0 50 50" fill="none" xmlns="http://www.w3.org/2000/svg">
<circle cx="25" cy="25" r="23.5" stroke="#6E37B4" stroke-width="3"/>
<path fill-rule="evenodd" clip-rule="evenodd" d="M41.9221 20.9838C41.9221 16.1529 34.1927 11 25.0677 11C15.9427 11 8.42798 15.7235 8.42798 21.628C8.42798 25.7074 12.078 29.25 17.3383 30.8603L17.7677 26.9956C13.903 25.6 11.2192 23.453 11.2192 20.4471C11.2192 15.8309 17.4456 11.9662 24.9604 11.9662C32.4751 11.8588 38.9162 16.475 38.9162 20.125C38.9162 23.6255 36.6453 24.7563 33.6185 26.2634L33.6184 26.2634L33.6184 26.2634L33.6184 26.2634L33.6184 26.2635C33.4891 26.3278 33.3585 26.3929 33.2265 26.4588L33.978 30.3236C38.5942 28.2838 41.9221 25.8147 41.9221 20.9838ZM25.0677 13.2544C23.4574 13.2544 21.9545 13.6839 20.881 14.328L20.8724 14.3334C20.745 14.3298 20.6056 14.3279 20.4515 14.3279C19.2707 14.3279 17.231 14.7573 16.0501 15.5088C14.7618 16.2603 13.903 17.3338 13.581 18.5147C13.1515 20.8765 15.2986 23.0235 18.5192 23.4529C18.3045 25.4927 18.0898 27.7471 17.8751 30.1088C17.8368 30.5683 17.7985 31.0346 17.7596 31.5084L17.7595 31.5097L17.7595 31.5098L17.7595 31.51L17.7593 31.5122L17.7592 31.5129C17.5801 33.6943 17.388 36.0335 17.1236 38.5897H17.7785C18.046 35.8987 18.2392 33.358 18.4209 30.9676L18.4209 30.9676L18.4209 30.9676C18.4539 30.5332 18.4866 30.1038 18.5192 29.6794C18.6266 27.1029 18.8413 24.7412 19.056 22.5941H19.4854C19.2707 24.7412 19.056 27.1029 19.056 29.6794C18.8437 32.4395 18.6314 35.4097 18.4191 38.5897H19.8074V37.8383H23.2427V35.6912H21.203C21.203 35.0471 21.203 34.2956 21.3104 33.6515H22.2765V32.1485H20.0221C20.1295 30.5382 20.2368 28.9279 20.2368 27.5324C20.2895 26.848 20.3163 26.1636 20.3426 25.4919C20.37 24.7938 20.3968 24.1094 20.4515 23.4529C21.9294 23.2887 23.2817 22.8106 24.3163 22.0665V25.7074V30.2162H21.0957C21.0957 30.753 21.0957 31.1824 20.9883 31.7192H23.2427V33.8662H22.1692V35.2618H24.4236V36.1206H25.0676C25.0664 34.5302 25.0376 33.0239 25.0102 31.5873V31.5872V31.5871L25.0102 31.5868C24.9847 30.2505 24.9603 28.9744 24.9603 27.7471C24.9603 26.5229 24.9315 25.3276 24.9037 24.1761V24.176V24.1759V24.1758C24.8779 23.1058 24.853 22.0736 24.853 21.0912H25.2824C25.2824 22.0623 25.3067 23.0578 25.3322 24.1009L25.3322 24.101C25.3603 25.2486 25.3897 26.4536 25.3897 27.7471C25.446 29.0971 25.4728 30.5061 25.501 31.9894L25.501 31.9896L25.501 31.9898V31.9899C25.526 33.3048 25.5521 34.6781 25.6008 36.1206H27.0001V35.2618H29.1472C29.1472 35.0591 29.1232 34.8563 29.098 34.6423C29.0697 34.403 29.0398 34.1496 29.0398 33.8662H27.9663C27.9663 33.4905 27.9394 33.1416 27.9126 32.7927C27.8858 32.4438 27.8589 32.0949 27.8589 31.7192H30.1133C30.1133 31.4508 30.0865 31.2092 30.0597 30.9677C30.0328 30.7262 30.006 30.4846 30.006 30.2162H26.7854C26.7336 29.4398 26.7068 28.6883 26.6809 27.9618L26.6809 27.9617L26.6809 27.9616L26.6809 27.9615C26.6531 27.1813 26.6263 26.43 26.5707 25.7074C26.5192 25.0386 26.4924 24.3945 26.4667 23.775C26.4444 23.2393 26.4229 22.7219 26.3868 22.223C27.4922 22.8711 28.8869 23.3061 30.2532 23.422C30.308 23.9284 30.3659 24.4411 30.4247 24.9612C30.5796 26.3325 30.7403 27.7551 30.8649 29.25C30.9618 30.09 31.0587 30.9593 31.1586 31.8548L31.1586 31.8549V31.8549L31.1913 32.1486H28.9324C28.9324 32.578 29.0397 33.1147 29.1471 33.5442H30.1133C30.167 33.8662 30.1938 34.2151 30.2206 34.564C30.2475 34.9129 30.2743 35.2618 30.328 35.5839H28.2883C28.2883 35.9596 28.3151 36.3085 28.3419 36.6574C28.3688 37.0063 28.3956 37.3552 28.3956 37.7309H31.8427C31.874 37.9801 31.9059 38.2306 31.9384 38.4823H32.475C32.1206 35.7358 31.8394 33.2817 31.5708 30.939C31.514 30.4432 31.4578 29.9524 31.4015 29.4648C31.3528 29.0916 31.3042 28.7209 31.2559 28.3531C30.9846 26.2867 30.7249 24.3094 30.5427 22.4868H30.9721C31.1868 24.6339 31.5089 26.9957 31.9383 29.4648C32.2062 31.2062 32.4323 33.0312 32.6688 34.9398C32.8113 36.0903 32.9576 37.2711 33.1191 38.4823H34.6222C34.2922 36.4362 34.0028 34.4713 33.729 32.6124L33.7288 32.6116L33.7285 32.6095C33.5571 31.446 33.3919 30.3241 33.2266 29.25C32.8789 27.1636 32.6016 25.218 32.3376 23.3562C33.7432 23.1458 34.7613 22.6116 35.5883 21.95C36.6619 21.0912 37.0913 19.8029 36.7692 18.5147C36.4472 17.2265 35.481 16.2603 34.1927 15.5088C33.2266 14.7573 31.1869 14.3279 30.006 14.3279C29.7214 14.3279 29.4867 14.3342 29.2838 14.3466L29.2545 14.328C28.181 13.6839 26.678 13.2544 25.0677 13.2544ZM21.4177 15.2941C21.4005 15.2884 21.3864 15.283 21.3748 15.2778C20.7047 15.8115 20.2829 16.4893 20.2368 17.2265C20.1295 18.9442 21.8471 20.4471 24.3163 20.7692V20.6618H26.356C28.7177 20.3397 30.2207 18.9442 30.006 17.2265C29.7913 15.5089 27.6442 14.1133 25.0677 14.1133C24.1289 14.1133 23.2471 14.2986 22.5002 14.6172L22.5986 14.65C22.1692 14.7573 21.7398 14.9721 21.4177 15.2941ZM15.0839 18.5147C15.3615 16.9414 17.953 15.6074 19.6254 15.2694C19.2166 15.7062 18.9616 16.2642 18.8413 17.2265C18.6586 18.6882 20.3415 20.7717 22.898 21.5588C22.2738 21.8834 21.5429 22.1006 20.7736 22.1647V22.0574H18.7339V22.1647C16.3721 21.7353 14.7618 20.3397 15.0839 18.5147ZM30.1291 22.2209C29.2647 22.1163 28.453 21.8576 27.7689 21.5048C30.1565 20.6635 31.5829 18.677 31.4016 17.2265C31.2759 16.221 30.9663 15.657 30.4942 15.2114C32.1294 15.4057 35.0848 16.7317 35.481 18.5147C35.8484 20.1683 34.4078 21.7432 32.1682 22.1633L32.1531 22.0573H30.1134L30.1291 22.2209Z" fill="#6E37B4"/>
</svg>
