<svg width="16" height="22" viewBox="0 0 16 22" fill="none" xmlns="http://www.w3.org/2000/svg">
<path d="M15.4786 5.73571L9.97857 0.235714C9.82143 0.0785714 9.66429 0 9.42857 0H1.57143C0.707143 0 0 0.707143 0 1.57143V20.4286C0 21.2929 0.707143 22 1.57143 22H14.1429C15.0071 22 15.7143 21.2929 15.7143 20.4286V6.28571C15.7143 6.05 15.6357 5.89286 15.4786 5.73571ZM9.42857 1.88571L13.8286 6.28571H9.42857V1.88571ZM14.1429 20.4286H1.57143V1.57143H7.85714V6.28571C7.85714 7.15 8.56429 7.85714 9.42857 7.85714H14.1429V20.4286Z" fill="#428DFF"/>
<path d="M3.14282 15.7143H12.5714V17.2857H3.14282V15.7143Z" fill="#428DFF"/>
<path d="M3.14282 11H12.5714V12.5714H3.14282V11Z" fill="#428DFF"/>
</svg>
