<svg width="15" height="9" viewBox="0 0 15 9" fill="none" xmlns="http://www.w3.org/2000/svg">
<path fill-rule="evenodd" clip-rule="evenodd" d="M4.6803 0.178345C4.62391 0.121812 4.55692 0.076959 4.48317 0.0463557C4.40942 0.0157523 4.33035 0 4.2505 0C4.17065 0 4.09159 0.0157523 4.01784 0.0463557C3.94409 0.076959 3.8771 0.121812 3.82071 0.178345L0.178384 3.82067C0.121851 3.87706 0.0769992 3.94405 0.0463958 4.0178C0.0157924 4.09155 3.95775e-05 4.17062 3.95775e-05 4.25046C3.95775e-05 4.33031 0.0157924 4.40938 0.0463958 4.48313C0.0769992 4.55688 0.121851 4.62387 0.178384 4.68026L3.82071 8.32258C3.9347 8.43657 4.0893 8.50061 4.2505 8.50061C4.41171 8.50061 4.56631 8.43657 4.6803 8.32258C4.79429 8.20859 4.85832 8.05399 4.85832 7.89279C4.85832 7.73158 4.79429 7.57698 4.6803 7.46299L1.46655 4.25046L4.6803 1.03793C4.73683 0.981543 4.78168 0.914554 4.81229 0.840803C4.84289 0.767052 4.85864 0.687988 4.85864 0.608139C4.85864 0.52829 4.84289 0.449226 4.81229 0.375475C4.78168 0.301724 4.73683 0.234735 4.6803 0.178345Z" fill="#4E94FF"/>
<path fill-rule="evenodd" clip-rule="evenodd" d="M14.5704 4.25049C14.5704 4.08949 14.5065 3.93508 14.3926 3.82123C14.2788 3.70739 14.1244 3.64343 13.9634 3.64343H1.21524C1.05424 3.64343 0.899837 3.70739 0.785992 3.82123C0.672147 3.93508 0.60819 4.08949 0.60819 4.25049C0.60819 4.41149 0.672147 4.56589 0.785992 4.67974C0.899837 4.79358 1.05424 4.85754 1.21524 4.85754H13.9634C14.1244 4.85754 14.2788 4.79358 14.3926 4.67974C14.5065 4.56589 14.5704 4.41149 14.5704 4.25049Z" fill="#4E94FF"/>
</svg>
