<svg width="17" height="17" viewBox="0 0 17 17" fill="none" xmlns="http://www.w3.org/2000/svg">
<path d="M14.5854 9.333C14.6194 9.061 14.6449 8.789 14.6449 8.5C14.6449 8.211 14.6194 7.939 14.5854 7.667L16.3789 6.2645C16.5404 6.137 16.5829 5.9075 16.4809 5.7205L14.7809 2.7795C14.6789 2.5925 14.4494 2.5245 14.2624 2.5925L12.1459 3.4425C11.7039 3.1025 11.2279 2.822 10.7094 2.6095L10.3864 0.357C10.3609 0.153 10.1824 0 9.96993 0H6.56993C6.35743 0 6.17893 0.153 6.15343 0.357L5.83043 2.6095C5.31193 2.822 4.83593 3.111 4.39393 3.4425L2.27743 2.5925C2.08193 2.516 1.86093 2.5925 1.75893 2.7795L0.0589318 5.7205C-0.0515682 5.9075 -0.000568108 6.137 0.160932 6.2645L1.95443 7.667C1.92043 7.939 1.89493 8.2195 1.89493 8.5C1.89493 8.7805 1.92043 9.061 1.95443 9.333L0.160932 10.7355C-0.000568108 10.863 -0.0430682 11.0925 0.0589318 11.2795L1.75893 14.2205C1.86093 14.4075 2.09043 14.4755 2.27743 14.4075L4.39393 13.5575C4.83593 13.8975 5.31193 14.178 5.83043 14.3905L6.15343 16.643C6.17893 16.847 6.35743 17 6.56993 17H9.96993C10.1824 17 10.3609 16.847 10.3864 16.643L10.7094 14.3905C11.2279 14.178 11.7039 13.889 12.1459 13.5575L14.2624 14.4075C14.4579 14.484 14.6789 14.4075 14.7809 14.2205L16.4809 11.2795C16.5829 11.0925 16.5404 10.863 16.3789 10.7355L14.5854 9.333ZM8.26993 11.475C6.62943 11.475 5.29493 10.1405 5.29493 8.5C5.29493 6.8595 6.62943 5.525 8.26993 5.525C9.91043 5.525 11.2449 6.8595 11.2449 8.5C11.2449 10.1405 9.91043 11.475 8.26993 11.475Z" fill="white"/>
</svg>
